<svg width="18" height="18" viewBox="0 0 18 18" fill="none" xmlns="http://www.w3.org/2000/svg">
<path d="M9.2813 15.1875H3.35395C3.28259 15.1884 3.21177 15.1751 3.14565 15.1482C3.07954 15.1213 3.01948 15.0815 2.96901 15.031C2.91855 14.9806 2.87871 14.9205 2.85183 14.8544C2.82496 14.7883 2.8116 14.7175 2.81255 14.6461V8.71875C2.81255 7.00313 3.49407 5.35778 4.7072 4.14465C5.92033 2.93153 7.56568 2.25 9.2813 2.25V2.25C10.1308 2.25 10.972 2.41732 11.7568 2.7424C12.5416 3.06749 13.2547 3.54397 13.8554 4.14465C14.4561 4.74533 14.9326 5.45844 15.2576 6.24327C15.5827 7.02809 15.75 7.86926 15.75 8.71875V8.71875C15.75 9.56824 15.5827 10.4094 15.2576 11.1942C14.9326 11.9791 14.4561 12.6922 13.8554 13.2928C13.2547 13.8935 12.5416 14.37 11.7568 14.6951C10.972 15.0202 10.1308 15.1875 9.2813 15.1875V15.1875Z" stroke="white" stroke-width="1.5" stroke-linecap="round" stroke-linejoin="round"/>
<path d="M7.03125 7.875H11.25" stroke="white" stroke-width="1.5" stroke-linecap="round" stroke-linejoin="round"/>
<path d="M7.03125 10.125H11.25" stroke="white" stroke-width="1.5" stroke-linecap="round" stroke-linejoin="round"/>
</svg>
